<svg xmlns="http://www.w3.org/2000/svg" width="35" height="35" viewBox="-15 -15 162 162" fill="none">
    <circle cx="66" cy="66" r="66" fill="#000"/>
    <path d="M66 0C29.549999999999955 0 0 29.546999999999997 0 66C0 102.453 29.549999999999955 132 66 132C102.45000000000005 132 132 102.453 132 66C132 29.546999999999997 102.45000000000005 0 66 0zM98.20000000000005 95.143C97.1400000000001 97.02000000000001 95.19000000000005 98.076 93.18000000000006 98.076C92.24000000000001 98.076 91.26999999999998 97.84100000000001 90.38000000000011 97.346C82.1400000000001 92.726 73.16000000000008 89.89599999999999 63.67000000000007 88.935C54.16000000000008 87.982 44.76999999999998 88.947 35.75 91.827C32.74000000000001 92.78800000000001 29.5 91.125 28.539999999999964 88.11000000000001C27.569999999999936 85.09 29.24000000000001 81.86099999999999 32.25999999999999 80.89500000000001C42.77999999999997 77.53399999999999 53.75 76.39099999999999 64.82999999999993 77.517C75.8900000000001 78.643 86.36999999999989 81.94300000000001 95.99000000000001 87.33500000000001C98.75999999999999 88.87700000000001 99.75 92.375 98.20000000000005 95.143zM106.09999999999991 75.096C105.07999999999993 77.059 103.07999999999993 78.185 101.00999999999999 78.185C100.1099999999999 78.185 99.21000000000004 77.97900000000001 98.3599999999999 77.53399999999999C88.23000000000002 72.25800000000001 77.28999999999996 68.99100000000001 65.81999999999994 67.827C54.25999999999999 66.644 42.809999999999945 67.67500000000001 31.769999999999982 70.85900000000001C28.720000000000027 71.725 25.539999999999964 69.981 24.670000000000073 66.93199999999999C23.789999999999964 63.888000000000005 25.549999999999955 60.708 28.589999999999918 59.82900000000001C41.049999999999955 56.23599999999999 53.97000000000003 55.08500000000001 66.98000000000002 56.405C79.90000000000009 57.721000000000004 92.24000000000001 61.40100000000001 103.67000000000007 67.357C106.47000000000003 68.822 107.56999999999994 72.286 106.09999999999991 75.096zM108.96000000000004 58.418000000000006C108.09999999999991 58.418000000000006 107.23000000000002 58.22399999999999 106.40000000000009 57.816C94.38000000000011 51.822 81.45000000000005 48.089 67.96000000000004 46.72C54.450000000000045 45.337999999999994 41.00999999999999 46.406000000000006 28 49.879999999999995C24.940000000000055 50.69200000000001 21.799999999999955 48.87700000000001 20.980000000000018 45.81200000000001C20.160000000000082 42.751000000000005 21.980000000000018 39.60400000000001 25.049999999999955 38.787000000000006C39.40000000000009 34.95500000000001 54.24000000000001 33.78800000000001 69.13000000000011 35.30199999999999C84 36.80699999999999 98.25999999999999 40.928 111.51999999999998 47.541C114.3599999999999 48.95500000000001 115.50999999999999 52.403999999999996 114.09999999999991 55.238C113.09999999999991 57.254999999999995 111.06999999999994 58.418000000000006 108.96000000000004 58.418000000000006z" fill="#1ED760"/>
</svg>

